<mxfile host="app.diagrams.net" agent="Mozilla/5.0 (Macintosh; Intel Mac OS X 10_15_7) AppleWebKit/537.36 (KHTML, like Gecko) Chrome/129.0.0.0 Safari/537.36" version="24.7.13">
  <diagram name="ページ1" id="oKM_rWbbFsQeyxLx6hBT">
    <mxGraphModel dx="1434" dy="785" grid="1" gridSize="10" guides="1" tooltips="1" connect="1" arrows="1" fold="1" page="1" pageScale="1" pageWidth="827" pageHeight="1169" math="0" shadow="0">
      <root>
        <mxCell id="0" />
        <mxCell id="1" parent="0" />
        <mxCell id="fsGPkaUiXoxHUEZwdyoa-4" value="&lt;span style=&quot;font-size: 24px;&quot;&gt;開発環境&lt;/span&gt;" style="fillColor=none;strokeColor=#5A6C86;dashed=1;verticalAlign=top;fontStyle=0;fontColor=#5A6C86;whiteSpace=wrap;html=1;" vertex="1" parent="1">
          <mxGeometry x="61.36" y="120" width="220" height="380" as="geometry" />
        </mxCell>
        <mxCell id="fsGPkaUiXoxHUEZwdyoa-3" value="AWS Cloud" style="points=[[0,0],[0.25,0],[0.5,0],[0.75,0],[1,0],[1,0.25],[1,0.5],[1,0.75],[1,1],[0.75,1],[0.5,1],[0.25,1],[0,1],[0,0.75],[0,0.5],[0,0.25]];outlineConnect=0;gradientColor=none;html=1;whiteSpace=wrap;fontSize=12;fontStyle=0;container=1;pointerEvents=0;collapsible=0;recursiveResize=0;shape=mxgraph.aws4.group;grIcon=mxgraph.aws4.group_aws_cloud_alt;strokeColor=#232F3E;fillColor=none;verticalAlign=top;align=left;spacingLeft=30;fontColor=#232F3E;dashed=0;" vertex="1" parent="1">
          <mxGeometry x="380" y="120" width="846" height="1016" as="geometry" />
        </mxCell>
        <mxCell id="fsGPkaUiXoxHUEZwdyoa-16" style="edgeStyle=orthogonalEdgeStyle;rounded=0;orthogonalLoop=1;jettySize=auto;html=1;fillColor=#dae8fc;strokeColor=#6c8ebf;strokeWidth=4;" edge="1" parent="fsGPkaUiXoxHUEZwdyoa-3" source="fsGPkaUiXoxHUEZwdyoa-5" target="fsGPkaUiXoxHUEZwdyoa-6">
          <mxGeometry relative="1" as="geometry" />
        </mxCell>
        <mxCell id="fsGPkaUiXoxHUEZwdyoa-35" style="edgeStyle=orthogonalEdgeStyle;rounded=0;orthogonalLoop=1;jettySize=auto;html=1;fillColor=#d5e8d4;strokeColor=#82b366;strokeWidth=3;" edge="1" parent="fsGPkaUiXoxHUEZwdyoa-3" source="fsGPkaUiXoxHUEZwdyoa-5" target="fsGPkaUiXoxHUEZwdyoa-33">
          <mxGeometry relative="1" as="geometry">
            <Array as="points">
              <mxPoint x="241" y="300" />
            </Array>
          </mxGeometry>
        </mxCell>
        <mxCell id="fsGPkaUiXoxHUEZwdyoa-5" value="" style="sketch=0;points=[[0,0,0],[0.25,0,0],[0.5,0,0],[0.75,0,0],[1,0,0],[0,1,0],[0.25,1,0],[0.5,1,0],[0.75,1,0],[1,1,0],[0,0.25,0],[0,0.5,0],[0,0.75,0],[1,0.25,0],[1,0.5,0],[1,0.75,0]];outlineConnect=0;fontColor=#232F3E;fillColor=#E7157B;strokeColor=#ffffff;dashed=0;verticalLabelPosition=bottom;verticalAlign=top;align=center;html=1;fontSize=12;fontStyle=0;aspect=fixed;shape=mxgraph.aws4.resourceIcon;resIcon=mxgraph.aws4.api_gateway;" vertex="1" parent="fsGPkaUiXoxHUEZwdyoa-3">
          <mxGeometry x="80" y="230" width="78" height="78" as="geometry" />
        </mxCell>
        <mxCell id="fsGPkaUiXoxHUEZwdyoa-6" value="" style="sketch=0;points=[[0,0,0],[0.25,0,0],[0.5,0,0],[0.75,0,0],[1,0,0],[0,1,0],[0.25,1,0],[0.5,1,0],[0.75,1,0],[1,1,0],[0,0.25,0],[0,0.5,0],[0,0.75,0],[1,0.25,0],[1,0.5,0],[1,0.75,0]];outlineConnect=0;fontColor=#232F3E;fillColor=#ED7100;strokeColor=#ffffff;dashed=0;verticalLabelPosition=bottom;verticalAlign=top;align=center;html=1;fontSize=12;fontStyle=0;aspect=fixed;shape=mxgraph.aws4.resourceIcon;resIcon=mxgraph.aws4.lambda;" vertex="1" parent="fsGPkaUiXoxHUEZwdyoa-3">
          <mxGeometry x="492" y="230" width="78" height="78" as="geometry" />
        </mxCell>
        <mxCell id="fsGPkaUiXoxHUEZwdyoa-18" value="Main&#xa;(PORT: 3001)" style="shape=image;verticalLabelPosition=bottom;labelBackgroundColor=default;verticalAlign=top;aspect=fixed;imageAspect=0;image=https://images.ctfassets.net/23aumh6u8s0i/6pjUKboBuFLvCKkE3esaFA/5f2101d6d2add5c615db5e98a553fc44/nextjs.jpeg;imageBorder=#0873FF;strokeWidth=6;" vertex="1" parent="fsGPkaUiXoxHUEZwdyoa-3">
          <mxGeometry x="660" y="80" width="100.23" height="90" as="geometry" />
        </mxCell>
        <mxCell id="fsGPkaUiXoxHUEZwdyoa-19" value="" style="image;sketch=0;aspect=fixed;html=1;points=[];align=center;fontSize=12;image=img/lib/mscae/Docker.svg;" vertex="1" parent="fsGPkaUiXoxHUEZwdyoa-3">
          <mxGeometry x="560" y="180" width="109.76" height="90" as="geometry" />
        </mxCell>
        <mxCell id="fsGPkaUiXoxHUEZwdyoa-26" style="edgeStyle=orthogonalEdgeStyle;rounded=0;orthogonalLoop=1;jettySize=auto;html=1;fillColor=#dae8fc;strokeColor=#6c8ebf;strokeWidth=3;" edge="1" parent="fsGPkaUiXoxHUEZwdyoa-3" source="fsGPkaUiXoxHUEZwdyoa-23" target="fsGPkaUiXoxHUEZwdyoa-5">
          <mxGeometry relative="1" as="geometry" />
        </mxCell>
        <mxCell id="fsGPkaUiXoxHUEZwdyoa-23" value="Welcome" style="sketch=0;points=[[0,0,0],[0.25,0,0],[0.5,0,0],[0.75,0,0],[1,0,0],[0,1,0],[0.25,1,0],[0.5,1,0],[0.75,1,0],[1,1,0],[0,0.25,0],[0,0.5,0],[0,0.75,0],[1,0.25,0],[1,0.5,0],[1,0.75,0]];outlineConnect=0;fontColor=#232F3E;fillColor=#7AA116;strokeColor=#ffffff;dashed=0;verticalLabelPosition=bottom;verticalAlign=top;align=center;html=1;fontSize=12;fontStyle=0;aspect=fixed;shape=mxgraph.aws4.resourceIcon;resIcon=mxgraph.aws4.s3;" vertex="1" parent="fsGPkaUiXoxHUEZwdyoa-3">
          <mxGeometry x="80" y="540" width="78" height="78" as="geometry" />
        </mxCell>
        <mxCell id="fsGPkaUiXoxHUEZwdyoa-28" value="全員がアクセス可能" style="shape=callout;whiteSpace=wrap;html=1;perimeter=calloutPerimeter;position2=0.06;" vertex="1" parent="fsGPkaUiXoxHUEZwdyoa-3">
          <mxGeometry x="140" y="490" width="170" height="70" as="geometry" />
        </mxCell>
        <mxCell id="fsGPkaUiXoxHUEZwdyoa-30" value="Welcome経由の&lt;div&gt;アクセスのみ許可&lt;/div&gt;" style="shape=callout;whiteSpace=wrap;html=1;perimeter=calloutPerimeter;position2=0.18;" vertex="1" parent="fsGPkaUiXoxHUEZwdyoa-3">
          <mxGeometry x="140" y="180" width="170" height="70" as="geometry" />
        </mxCell>
        <mxCell id="fsGPkaUiXoxHUEZwdyoa-33" value="" style="sketch=0;points=[[0,0,0],[0.25,0,0],[0.5,0,0],[0.75,0,0],[1,0,0],[0,1,0],[0.25,1,0],[0.5,1,0],[0.75,1,0],[1,1,0],[0,0.25,0],[0,0.5,0],[0,0.75,0],[1,0.25,0],[1,0.5,0],[1,0.75,0]];outlineConnect=0;fontColor=#232F3E;fillColor=#ED7100;strokeColor=#ffffff;dashed=0;verticalLabelPosition=bottom;verticalAlign=top;align=center;html=1;fontSize=12;fontStyle=0;aspect=fixed;shape=mxgraph.aws4.resourceIcon;resIcon=mxgraph.aws4.lambda;" vertex="1" parent="fsGPkaUiXoxHUEZwdyoa-3">
          <mxGeometry x="202" y="350" width="78" height="78" as="geometry" />
        </mxCell>
        <mxCell id="fsGPkaUiXoxHUEZwdyoa-31" value="Lambdaオーソライザの利用を検討" style="shape=callout;whiteSpace=wrap;html=1;perimeter=calloutPerimeter;position2=0;" vertex="1" parent="fsGPkaUiXoxHUEZwdyoa-3">
          <mxGeometry x="260" y="300" width="210" height="88" as="geometry" />
        </mxCell>
        <mxCell id="fsGPkaUiXoxHUEZwdyoa-36" style="edgeStyle=orthogonalEdgeStyle;rounded=0;orthogonalLoop=1;jettySize=auto;html=1;exitX=0;exitY=0.5;exitDx=0;exitDy=0;exitPerimeter=0;entryX=0.75;entryY=1;entryDx=0;entryDy=0;entryPerimeter=0;fillColor=#d5e8d4;strokeColor=#82b366;strokeWidth=3;" edge="1" parent="fsGPkaUiXoxHUEZwdyoa-3" source="fsGPkaUiXoxHUEZwdyoa-33" target="fsGPkaUiXoxHUEZwdyoa-5">
          <mxGeometry relative="1" as="geometry">
            <Array as="points">
              <mxPoint x="160" y="389" />
              <mxPoint x="160" y="308" />
            </Array>
          </mxGeometry>
        </mxCell>
        <mxCell id="fsGPkaUiXoxHUEZwdyoa-37" value="Welcome&#xa;(PORT: 3000)" style="shape=image;verticalLabelPosition=bottom;labelBackgroundColor=default;verticalAlign=top;aspect=fixed;imageAspect=0;image=https://images.ctfassets.net/23aumh6u8s0i/6pjUKboBuFLvCKkE3esaFA/5f2101d6d2add5c615db5e98a553fc44/nextjs.jpeg;strokeWidth=5;imageBorder=#19FF40;" vertex="1" parent="fsGPkaUiXoxHUEZwdyoa-3">
          <mxGeometry x="150" y="610" width="100" height="89.79" as="geometry" />
        </mxCell>
        <mxCell id="fsGPkaUiXoxHUEZwdyoa-42" value="" style="shape=image;verticalLabelPosition=bottom;labelBackgroundColor=default;verticalAlign=top;aspect=fixed;imageAspect=0;image=https://next-auth.js.org/img/logo/logo-sm.png;" vertex="1" parent="fsGPkaUiXoxHUEZwdyoa-3">
          <mxGeometry x="470" y="180" width="54.35" height="60" as="geometry" />
        </mxCell>
        <mxCell id="fsGPkaUiXoxHUEZwdyoa-43" value="" style="shape=image;verticalLabelPosition=bottom;labelBackgroundColor=default;verticalAlign=top;aspect=fixed;imageAspect=0;image=https://next-auth.js.org/img/logo/logo-sm.png;" vertex="1" parent="fsGPkaUiXoxHUEZwdyoa-3">
          <mxGeometry x="240" y="580" width="54.35" height="60" as="geometry" />
        </mxCell>
        <mxCell id="fsGPkaUiXoxHUEZwdyoa-17" style="edgeStyle=orthogonalEdgeStyle;rounded=0;orthogonalLoop=1;jettySize=auto;html=1;exitX=1;exitY=0.5;exitDx=0;exitDy=0;fillColor=#dae8fc;strokeColor=#6c8ebf;strokeWidth=4;" edge="1" parent="1" source="fsGPkaUiXoxHUEZwdyoa-11" target="fsGPkaUiXoxHUEZwdyoa-5">
          <mxGeometry relative="1" as="geometry" />
        </mxCell>
        <mxCell id="fsGPkaUiXoxHUEZwdyoa-11" value="Welcome&#xa;(PORT: 3000)" style="shape=image;verticalLabelPosition=bottom;labelBackgroundColor=default;verticalAlign=top;aspect=fixed;imageAspect=0;image=https://images.ctfassets.net/23aumh6u8s0i/6pjUKboBuFLvCKkE3esaFA/5f2101d6d2add5c615db5e98a553fc44/nextjs.jpeg;strokeWidth=5;imageBorder=#19FF40;" vertex="1" parent="1">
          <mxGeometry x="121.25" y="180" width="100.23" height="90" as="geometry" />
        </mxCell>
        <mxCell id="fsGPkaUiXoxHUEZwdyoa-12" value="Main&#xa;(PORT: 3001)" style="shape=image;verticalLabelPosition=bottom;labelBackgroundColor=default;verticalAlign=top;aspect=fixed;imageAspect=0;image=https://images.ctfassets.net/23aumh6u8s0i/6pjUKboBuFLvCKkE3esaFA/5f2101d6d2add5c615db5e98a553fc44/nextjs.jpeg;imageBackground=#FF7DD8;strokeWidth=7;imageBorder=#0873FF;" vertex="1" parent="1">
          <mxGeometry x="121.25" y="350" width="100.23" height="90" as="geometry" />
        </mxCell>
        <mxCell id="fsGPkaUiXoxHUEZwdyoa-14" value="" style="endArrow=classic;html=1;rounded=0;fillColor=#dae8fc;strokeColor=#6c8ebf;strokeWidth=3;" edge="1" parent="1" source="fsGPkaUiXoxHUEZwdyoa-11" target="fsGPkaUiXoxHUEZwdyoa-12">
          <mxGeometry width="50" height="50" relative="1" as="geometry">
            <mxPoint x="610" y="440" as="sourcePoint" />
            <mxPoint x="660" y="390" as="targetPoint" />
          </mxGeometry>
        </mxCell>
        <mxCell id="fsGPkaUiXoxHUEZwdyoa-20" value="" style="shape=actor;whiteSpace=wrap;html=1;" vertex="1" parent="1">
          <mxGeometry x="141.36" y="540" width="60" height="75" as="geometry" />
        </mxCell>
        <mxCell id="fsGPkaUiXoxHUEZwdyoa-21" style="edgeStyle=orthogonalEdgeStyle;rounded=0;orthogonalLoop=1;jettySize=auto;html=1;entryX=0;entryY=0.5;entryDx=0;entryDy=0;entryPerimeter=0;fillColor=#f8cecc;strokeColor=#b85450;strokeWidth=4;" edge="1" parent="1" source="fsGPkaUiXoxHUEZwdyoa-20" target="fsGPkaUiXoxHUEZwdyoa-5">
          <mxGeometry relative="1" as="geometry" />
        </mxCell>
        <mxCell id="fsGPkaUiXoxHUEZwdyoa-22" value="" style="shape=mxgraph.sysml.x;fillColor=#f8cecc;strokeColor=#b85450;strokeWidth=3;" vertex="1" parent="1">
          <mxGeometry x="290" y="490" width="80" height="80" as="geometry" />
        </mxCell>
        <mxCell id="fsGPkaUiXoxHUEZwdyoa-25" style="edgeStyle=orthogonalEdgeStyle;rounded=0;orthogonalLoop=1;jettySize=auto;html=1;fillColor=#dae8fc;strokeColor=#6c8ebf;strokeWidth=3;" edge="1" parent="1" source="fsGPkaUiXoxHUEZwdyoa-24" target="fsGPkaUiXoxHUEZwdyoa-23">
          <mxGeometry relative="1" as="geometry" />
        </mxCell>
        <mxCell id="fsGPkaUiXoxHUEZwdyoa-24" value="" style="shape=actor;whiteSpace=wrap;html=1;" vertex="1" parent="1">
          <mxGeometry x="141.36" y="680" width="60" height="75" as="geometry" />
        </mxCell>
        <mxCell id="fsGPkaUiXoxHUEZwdyoa-40" value="" style="shape=image;verticalLabelPosition=bottom;labelBackgroundColor=default;verticalAlign=top;aspect=fixed;imageAspect=0;image=https://next-auth.js.org/img/logo/logo-sm.png;" vertex="1" parent="1">
          <mxGeometry x="70" y="160" width="54.35" height="60" as="geometry" />
        </mxCell>
        <mxCell id="fsGPkaUiXoxHUEZwdyoa-41" value="" style="shape=image;verticalLabelPosition=bottom;labelBackgroundColor=default;verticalAlign=top;aspect=fixed;imageAspect=0;image=https://next-auth.js.org/img/logo/logo-sm.png;" vertex="1" parent="1">
          <mxGeometry x="70" y="320" width="54.35" height="60" as="geometry" />
        </mxCell>
      </root>
    </mxGraphModel>
  </diagram>
</mxfile>
